<svg xmlns="http://www.w3.org/2000/svg" width="800" height="800" viewBox="0 0 64 64" fill="none"><g fill-rule="evenodd"><path d="M12.047 25.597l16.834-7.053L40.673 46.23l-16.859 7.153-11.766-27.785z" fill="#2a2941"/><path d="M14.23 21.47l16.834-7.053 11.792 27.761-16.884 7.153L14.23 21.47z" fill="#fff"/><path d="M31.49 13.367l-18.339 7.678 12.394 29.286 18.365-7.778L31.49 13.367zm-16.207 8.553l15.329-6.427 11.164 26.21-15.404 6.502-11.114-26.285h.025z" fill="#2a2941"/><path d="M26.372 23.196a6.59 6.59 0 0 0-1.907.75l.251 1.325a4.95 4.95 0 0 0-1.254 1.351l-1.33-.175c-.301.6-.502 1.276-.602 1.951l1.179.6c-.025.625.075 1.225.301 1.826l-.953.95a5.97 5.97 0 0 0 1.179 1.676l1.229-.525c.477.4 1.029.7 1.606.9l.176 1.325c.677.175 1.355.2 2.032.15l.351-1.3c.602-.125 1.179-.35 1.706-.675l1.179.7c.527-.425 1.003-.925 1.38-1.501l-.828-1.075c.301-.55.477-1.151.527-1.751l1.28-.45c.025-.675-.1-1.351-.326-2.001h-1.355c-.251-.575-.602-1.075-1.054-1.526l.452-1.251c-.527-.425-1.129-.775-1.781-1l-.878 1.025c-.602-.15-1.229-.2-1.857-.125l-.703-1.175zm0 2.726c.878-.35 1.832-.325 2.71.025.853.375 1.555 1.05 1.907 1.901.176.425.251.875.251 1.351 0 .45-.1.925-.301 1.326-.176.425-.452.8-.778 1.125s-.727.575-1.154.75c-.878.35-1.831.325-2.709-.025-.853-.375-1.53-1.05-1.882-1.926s-.326-1.826.025-2.701c.376-.85 1.054-1.526 1.932-1.876v.05z" fill="#fec34e"/><path d="M26.874 22.871l-.226-.35-.401.075a7.86 7.86 0 0 0-2.082.825l-.351.2.276 1.35a6.45 6.45 0 0 0-.878.975l-1.405-.15-.176.35c-.326.675-.552 1.401-.652 2.126v.4l1.254.65c.025.425.1.875.201 1.3l-1.004 1 .176.375c.326.675.753 1.3 1.28 1.826l.276.3 1.279-.575c.351.275.753.475 1.179.65l.176 1.375.401.1c.728.175 1.48.225 2.233.15h.401l.351-1.351c.426-.125.853-.275 1.229-.5l1.179.725.326-.25c.577-.475 1.079-1.025 1.455-1.651l.226-.35-.853-1.175a5.52 5.52 0 0 0 .376-1.251l1.33-.475v-.425a6.04 6.04 0 0 0-.351-2.201l-.126-.4h-1.405a4.61 4.61 0 0 0-.753-1.075l.451-1.325-.326-.25a7.58 7.58 0 0 0-1.957-1.101l-.376-.15-.903 1.05c-.427-.075-.878-.125-1.33-.1l-.527-.825.025.125zm-.502.325a6.59 6.59 0 0 0-1.907.75l.251 1.325a4.93 4.93 0 0 0-1.254 1.351l-1.33-.15a6.38 6.38 0 0 0-.602 1.926l1.179.625c-.025.625.075 1.226.301 1.826l-.953.95a5.98 5.98 0 0 0 1.179 1.676l1.229-.525a5.1 5.1 0 0 0 1.606.9l.176 1.326c.677.175 1.355.2 2.032.15l.351-1.3c.602-.125 1.204-.35 1.706-.675l1.179.7c.527-.425 1.003-.925 1.38-1.501l-.828-1.075a4.42 4.42 0 0 0 .527-1.751l1.28-.45c.025-.675-.1-1.351-.326-2.001h-1.355a4.52 4.52 0 0 0-1.054-1.501l.452-1.275a7.38 7.38 0 0 0-1.781-1l-.878 1.025c-.602-.15-1.229-.2-1.857-.125l-.703-1.2zm0 2.726c.878-.35 1.832-.325 2.71.025.853.375 1.555 1.05 1.907 1.901.176.425.251.875.251 1.351 0 .45-.1.925-.301 1.326-.176.425-.452.8-.778 1.125s-.727.575-1.154.75-.878.275-1.355.25a3.64 3.64 0 0 1-1.355-.275c-.427-.175-.803-.45-1.129-.775a3.52 3.52 0 0 1-.753-1.15 3.61 3.61 0 0 1-.276-1.351 3.51 3.51 0 0 1 .276-1.351c.176-.426.452-.825.778-1.125.326-.325.727-.575 1.154-.75v.05h.025zm.226.575a2.88 2.88 0 0 1 2.233.025c.727.3 1.28.875 1.581 1.601a2.43 2.43 0 0 1 .201 1.125c0 .375-.075.75-.226 1.1s-.376.675-.652.925a2.56 2.56 0 0 1-.953.6c-.728.275-1.53.275-2.233-.025a2.99 2.99 0 0 1-1.58-1.601c-.151-.35-.201-.725-.201-1.125 0-.375.075-.75.251-1.101a2.69 2.69 0 0 1 .652-.925c.251-.25.577-.475.928-.6zm-4.064-5.402l2.509-1.025-.376-.925-2.509 1.025.376.925zm19.318 13.73l3.512-1.476 3.588 1.901-2.333 5.077-5.57-1.651.803-3.902v.05zm-4.34-9.753l3.512-1.501 3.588 1.926-2.333 5.052-5.62-1.576.803-3.901h.05zm-4.14-9.954l3.512-1.501 3.588 1.901-2.333 5.077-5.62-1.601.778-3.901h.075v.025z" fill="#2a2941"/><path d="M43.608 32.65l3.512-1.501 3.588 1.901-2.333 5.077-5.62-1.601.778-3.902h.075v.025z" fill="#a694fe"/><path d="M47.196 30.249l-4.29 1.801-1.029 5.077 7 1.976 2.91-6.402-4.591-2.451zm-2.86 2.976l2.785-1.175 2.559 1.375-1.706 3.726-4.215-1.175.577-2.751z" fill="#2a2941"/><path d="M39.218 22.871l3.512-1.476 3.588 1.901-2.333 5.052-5.62-1.576.778-3.902h.075z" fill="#fec34e"/><path d="M42.855 20.495l-4.29 1.801-1.029 5.052 7 2.001 2.935-6.402-4.616-2.451zm-2.86 2.951l2.785-1.175 2.559 1.375-1.706 3.726-4.19-1.15.552-2.776z" fill="#2a2941"/><path d="M35.178 12.917l3.512-1.501 3.588 1.926-2.333 5.077-5.595-1.601.778-3.902h.05z" fill="#4c5efd"/><path d="M38.766 10.541l-4.29 1.801-1.029 5.052 7 2.001 2.91-6.402-4.591-2.451zm-2.86 2.976l2.785-1.175 2.559 1.351-1.706 3.726-4.215-1.175.577-2.726z" fill="#2a2941"/></g><path d="M30.913 42.979l-.477-.5-1.932.8v.7c.025.2.025.375 0 .575-.025.05-.05.1-.1.15s-.1.075-.15.1a.49.49 0 0 1-.376 0c-.05-.025-.125-.05-.151-.1-.05-.05-.075-.1-.1-.15-.025-.075-.025-.15 0-.2v-.325-3.551-.4c-.025-.125-.025-.25 0-.35a.83.83 0 0 1 .151-.3.5.5 0 0 1 .301-.2.66.66 0 0 1 .376-.05c.1 0 .201.05.301.1a.98.98 0 0 1 .251.2l.301.3 2.509 2.526c.15.125.276.275.351.45.05.125.025.25-.025.375s-.15.2-.276.25c-.075.025-.151.025-.201 0-.075 0-.125-.025-.176-.05a1.26 1.26 0 0 1-.201-.175l-.226-.2-.151.025zm-2.459-.525l1.43-.575-1.53-1.651.1 2.226zm5.495-2.251l-.878.35.552 1.35a.85.85 0 0 1 0 .5c-.05.125-.176.225-.301.275s-.276.05-.401 0c-.151-.075-.251-.225-.326-.375l-1.455-3.601a.48.48 0 0 1-.075-.25c0-.1 0-.175.05-.25.025-.075.1-.15.176-.2s.151-.1.251-.1l1.229-.5c.276-.125.577-.2.878-.25.201-.025.401-.025.602.05a.98.98 0 0 1 .502.325 1.59 1.59 0 0 1 .351.55 1.43 1.43 0 0 1 .151.625 1.28 1.28 0 0 1-.151.625 2.06 2.06 0 0 1-1.154.875zm-1.154-2.051l-.652.275.602 1.451.652-.275c.201-.075.376-.175.552-.3.126-.1.201-.225.251-.375a.77.77 0 0 0 0-.475.52.52 0 0 0-.151-.25.9.9 0 0 0-.251-.175c-.326-.075-.652-.025-.953.125h-.05zm4.34 2.326l-1.53-3.701a.85.85 0 0 1 0-.5c.05-.125.151-.225.301-.275.125-.05.276-.05.401 0a.61.61 0 0 1 .326.375l1.53 3.701a.85.85 0 0 1 0 .5c-.05.125-.176.225-.301.275s-.276.05-.401 0a.68.68 0 0 1-.326-.375z" fill="#4c5efd"/></svg>