<?xml version="1.0" standalone="no"?>
<!DOCTYPE svg PUBLIC "-//W3C//DTD SVG 20010904//EN"
 "http://www.w3.org/TR/2001/REC-SVG-20010904/DTD/svg10.dtd">
<svg version="1.0" xmlns="http://www.w3.org/2000/svg"
 width="200.000000pt" height="200.000000pt" viewBox="0 0 200.000000 200.000000"
 preserveAspectRatio="xMidYMid meet">

<g transform="translate(0.000000,200.000000) scale(0.100000,-0.100000)"
fill="#000000" stroke="none">
<path d="M605 1699 c-168 -16 -275 -48 -275 -83 0 -8 18 -21 40 -30 199 -79
893 -69 992 15 l23 19 -23 19 c-65 56 -464 87 -757 60z"/>
<path d="M330 1441 c0 -105 1 -111 24 -126 37 -25 148 -44 328 -57 256 -18
605 11 675 58 22 14 23 21 23 124 l0 109 -42 -15 c-124 -43 -465 -66 -698 -45
-132 12 -258 34 -292 53 -17 8 -18 0 -18 -101z"/>
<path d="M330 1161 c0 -78 4 -112 13 -120 18 -14 114 -38 217 -52 47 -6 182
-12 300 -11 233 0 401 18 478 52 l42 19 0 112 c0 102 -1 111 -17 104 -10 -4
-40 -13 -66 -20 -208 -57 -779 -50 -925 11 -19 8 -36 14 -38 14 -2 0 -4 -49
-4 -109z"/>
<path d="M330 881 l0 -112 37 -15 c75 -32 179 -45 399 -51 l221 -6 26 56 c27
59 94 139 139 167 26 16 14 16 -217 12 -294 -6 -479 11 -587 53 -17 7 -18 -2
-18 -104z"/>
<path d="M1269 897 c-160 -60 -245 -215 -204 -370 64 -243 355 -316 524 -131
57 62 81 123 81 205 0 119 -74 235 -178 281 -59 26 -172 34 -223 15z m239
-236 l3 -105 -21 19 c-20 18 -21 18 -35 -1 -13 -17 -14 -8 -15 89 l0 108 33
-3 32 -3 3 -104z m-88 -41 l0 -110 -40 0 -40 0 0 103 c0 57 3 107 7 110 3 4
21 7 40 7 l33 0 0 -110z m-90 -20 l0 -90 -40 0 -40 0 0 90 0 90 40 0 40 0 0
-90z m-92 -17 l3 -73 -41 0 -40 0 0 68 c0 38 3 72 7 76 4 4 21 6 38 4 l30 -3
3 -72z m257 -43 l18 -20 23 21 c32 30 52 14 23 -17 l-22 -24 22 -24 c29 -31 9
-47 -23 -17 l-23 21 -18 -20 c-10 -11 -22 -20 -27 -20 -13 0 -9 22 9 42 15 17
15 19 0 36 -18 20 -22 42 -9 42 5 0 17 -9 27 -20z m-40 -20 c3 -5 1 -10 -4
-10 -6 0 -11 5 -11 10 0 6 2 10 4 10 3 0 8 -4 11 -10z"/>
<path d="M330 606 l0 -114 33 -16 c65 -30 207 -48 435 -53 122 -3 222 -4 222
-2 0 2 -9 33 -20 67 -11 35 -20 85 -20 112 l0 47 -207 6 c-212 5 -359 24 -414
52 l-29 16 0 -115z"/>
</g>
</svg>
